<svg xmlns="http://www.w3.org/2000/svg" xmlns:xlink="http://www.w3.org/1999/xlink" viewBox="0 0 76.53 75.71"><defs><style>.cls-1{isolation:isolate;}.cls-2{fill:url(#linear-gradient);}.cls-3{fill:url(#radial-gradient);}.cls-4,.cls-5{mix-blend-mode:overlay;}.cls-4{fill:url(#radial-gradient-2);}.cls-5{opacity:0.4;fill:url(#Degradado_sin_nombre_34);}</style><linearGradient id="linear-gradient" x1="73.16" y1="-1.14" x2="5.9" y2="74.02" gradientUnits="userSpaceOnUse"><stop offset="0" stop-color="#ffba24"/><stop offset="1" stop-color="#f50"/></linearGradient><radialGradient id="radial-gradient" cx="399.28" cy="20.08" r="53.81" gradientTransform="matrix(-1, 0, 0, 1, 444.03, 0)" gradientUnits="userSpaceOnUse"><stop offset="0" stop-color="#fff4c3"/><stop offset="0.16" stop-color="#ffe036"/><stop offset="1" stop-color="#fa761c"/></radialGradient><radialGradient id="radial-gradient-2" cx="1380.14" cy="-1558" r="8.08" gradientTransform="matrix(-0.84, 1.15, -1.62, -1.31, -1314.19, -3611.54)" gradientUnits="userSpaceOnUse"><stop offset="0" stop-color="#fff"/><stop offset="0.1" stop-color="#fff" stop-opacity="0.85"/><stop offset="0.29" stop-color="#fff" stop-opacity="0.59"/><stop offset="0.47" stop-color="#fff" stop-opacity="0.38"/><stop offset="0.63" stop-color="#fff" stop-opacity="0.22"/><stop offset="0.78" stop-color="#fff" stop-opacity="0.1"/><stop offset="0.91" stop-color="#fff" stop-opacity="0.03"/><stop offset="1" stop-color="#fff" stop-opacity="0"/></radialGradient><radialGradient id="Degradado_sin_nombre_34" cx="-2510.76" cy="2994.87" r="7.79" gradientTransform="matrix(-1.17, -1.1, 0.22, -0.73, -3584.37, -529.73)" xlink:href="#radial-gradient-2"/></defs><g class="cls-1"><g id="Camada_2" data-name="Camada 2"><g id="OBJECTS"><polygon class="cls-2" points="68.21 61.7 59.83 62.26 58.25 70.51 50.18 68.16 45.87 75.37 39.1 70.4 32.58 75.71 27.91 68.73 19.98 71.48 17.98 63.32 9.58 63.2 10.49 54.85 2.64 51.86 6.36 44.32 0 38.83 6.07 33.02 1.97 25.68 9.66 22.3 8.32 14.01 16.71 13.46 18.29 5.2 26.35 7.55 30.66 0.34 37.44 5.3 43.95 0 48.62 6.98 56.55 4.22 58.55 12.39 66.95 12.51 66.04 20.86 73.89 23.85 70.18 31.39 76.53 36.88 70.47 42.69 74.56 50.02 66.87 53.41 68.21 61.7"/><path class="cls-3" d="M9.92,37.85A28.35,28.35,0,1,0,38.27,9.51,28.35,28.35,0,0,0,9.92,37.85Z"/><path class="cls-4" d="M42.59,34.94c-7.22-5.86-10-14.77-6.3-19.92s12.63-4.57,19.85,1.28,10,14.78,6.3,19.92S49.8,40.79,42.59,34.94Z"/><path class="cls-5" d="M13.21,44.12C14.17,41,19,42.28,24.08,47s8.35,11.12,7.4,14.26-5.81,1.83-10.86-2.9S12.26,47.25,13.21,44.12Z"/></g></g></g></svg>