<svg xmlns="http://www.w3.org/2000/svg" xmlns:xlink="http://www.w3.org/1999/xlink" viewBox="0 0 54 54"><defs><style>.cls-1{isolation:isolate;}.cls-2{fill:url(#radial-gradient);}.cls-3{fill:#acadb2;}.cls-4,.cls-5{mix-blend-mode:overlay;}.cls-4{fill:url(#radial-gradient-2);}.cls-5{opacity:0.4;fill:url(#Degradado_sin_nombre_34);}</style><radialGradient id="radial-gradient" cx="-676.98" cy="10.07" r="51.26" gradientTransform="matrix(-1, 0, 0, 1, -643.81, 0)" gradientUnits="userSpaceOnUse"><stop offset="0" stop-color="#f8f8f8"/><stop offset="0.16" stop-color="#ede9f1"/><stop offset="1" stop-color="#9b9da2"/></radialGradient><radialGradient id="radial-gradient-2" cx="717.21" cy="-2048.55" r="7.69" gradientTransform="matrix(-0.84, 1.15, -1.62, -1.31, -2676.33, -3500.95)" gradientUnits="userSpaceOnUse"><stop offset="0" stop-color="#fff"/><stop offset="0.1" stop-color="#fff" stop-opacity="0.85"/><stop offset="0.29" stop-color="#fff" stop-opacity="0.59"/><stop offset="0.47" stop-color="#fff" stop-opacity="0.38"/><stop offset="0.63" stop-color="#fff" stop-opacity="0.22"/><stop offset="0.78" stop-color="#fff" stop-opacity="0.1"/><stop offset="0.91" stop-color="#fff" stop-opacity="0.03"/><stop offset="1" stop-color="#fff" stop-opacity="0"/></radialGradient><radialGradient id="Degradado_sin_nombre_34" cx="-3451.44" cy="3079.99" r="7.43" gradientTransform="matrix(-1.17, -1.1, 0.22, -0.73, -4715.98, -1514.7)" xlink:href="#radial-gradient-2"/></defs><g class="cls-1"><g id="Camada_2" data-name="Camada 2"><g id="OBJECTS"><path class="cls-2" d="M0,27A27,27,0,1,0,27,0,27,27,0,0,0,0,27Z"/><path class="cls-3" d="M8.13,31.78c2.54-.23,4.35-3.11,4.06-6.43s-2.6-5.83-5.14-5.6S2.7,22.86,3,26.18,5.6,32,8.13,31.78Z"/><path class="cls-3" d="M5.94,34.19C4.41,35,4,37.25,5.08,39.24s3.12,3,4.64,2.16,1.9-3.06.86-5S7.46,33.4,5.94,34.19Z"/><path class="cls-3" d="M12,31.8a2.17,2.17,0,0,0-.51,3,2.18,2.18,0,0,0,2.74,1.27,2.17,2.17,0,0,0,.51-3A2.16,2.16,0,0,0,12,31.8Z"/><path class="cls-3" d="M51.94,28c-.47-3.3-2.89-5.69-5.41-5.34S42.34,26,42.81,29.27,45.7,35,48.22,34.6,52.41,31.28,51.94,28Z"/><path class="cls-3" d="M48.61,20.12c1.47-.88,1.74-3.15.6-5.09s-3.27-2.79-4.75-1.92-1.75,3.15-.6,5.09S47.13,21,48.61,20.12Z"/><path class="cls-3" d="M43.07,19.81a2.18,2.18,0,0,0-2.81-1.13,2.17,2.17,0,0,0-.35,3,2.18,2.18,0,0,0,2.8,1.14A2.19,2.19,0,0,0,43.07,19.81Z"/><path class="cls-4" d="M31.12,24.22c-6.88-5.58-9.57-14.07-6-19S37.15.9,44,6.47s9.56,14.08,6,19S38,29.8,31.12,24.22Z"/><path class="cls-5" d="M3.14,33c.91-3,5.54-1.75,10.34,2.76s8,10.6,7.06,13.58S15,51.06,10.19,46.55,2.23,36,3.14,33Z"/></g></g></g></svg>