<svg xmlns="http://www.w3.org/2000/svg" xmlns:xlink="http://www.w3.org/1999/xlink" viewBox="0 0 103.83 77.66"><defs><style>.cls-1{isolation:isolate;}.cls-2{fill:url(#linear-gradient);}.cls-3{fill:url(#radial-gradient);}.cls-10,.cls-4,.cls-5,.cls-8,.cls-9{mix-blend-mode:overlay;}.cls-4{fill:url(#radial-gradient-2);}.cls-5,.cls-9{opacity:0.4;}.cls-5{fill:url(#Degradado_sin_nombre_34);}.cls-6{fill:url(#radial-gradient-3);}.cls-7{fill:url(#radial-gradient-4);}.cls-8{fill:url(#radial-gradient-5);}.cls-9{fill:url(#radial-gradient-6);}.cls-10{opacity:0.2;fill:url(#Degradado_sin_nombre_34-2);}</style><linearGradient id="linear-gradient" x1="101.27" y1="-0.86" x2="50.22" y2="56.18" gradientUnits="userSpaceOnUse"><stop offset="0" stop-color="#ffba24"/><stop offset="1" stop-color="#f50"/></linearGradient><radialGradient id="radial-gradient" cx="-410.11" cy="15.24" r="40.84" gradientTransform="matrix(-1, 0, 0, 1, -330.41, 0)" gradientUnits="userSpaceOnUse"><stop offset="0" stop-color="#fff4c3"/><stop offset="0.16" stop-color="#ffe036"/><stop offset="1" stop-color="#fa761c"/></radialGradient><radialGradient id="radial-gradient-2" cx="802.32" cy="-1717.36" r="6.13" gradientTransform="matrix(-0.84, 1.15, -1.62, -1.31, -2023.21, -3160.32)" gradientUnits="userSpaceOnUse"><stop offset="0" stop-color="#fff"/><stop offset="0.1" stop-color="#fff" stop-opacity="0.85"/><stop offset="0.29" stop-color="#fff" stop-opacity="0.59"/><stop offset="0.47" stop-color="#fff" stop-opacity="0.38"/><stop offset="0.63" stop-color="#fff" stop-opacity="0.22"/><stop offset="0.78" stop-color="#fff" stop-opacity="0.1"/><stop offset="0.91" stop-color="#fff" stop-opacity="0.03"/><stop offset="1" stop-color="#fff" stop-opacity="0"/></radialGradient><radialGradient id="Degradado_sin_nombre_34" cx="-3178.7" cy="3441.2" r="5.92" gradientTransform="matrix(-1.17, -1.1, 0.22, -0.73, -4425.73, -952.56)" xlink:href="#radial-gradient-2"/><radialGradient id="radial-gradient-3" cx="57.67" cy="26.07" r="70.26" gradientTransform="translate(115.34 45.12) rotate(180) scale(1 0.73)" gradientUnits="userSpaceOnUse"><stop offset="0" stop-color="#fff"/><stop offset="0.2" stop-color="#d5f3ff"/><stop offset="1" stop-color="#85bcf1"/></radialGradient><radialGradient id="radial-gradient-4" cx="67.63" cy="31.96" r="59.73" gradientUnits="userSpaceOnUse"><stop offset="0" stop-color="#ffe036"/><stop offset="0.08" stop-color="#fecb31" stop-opacity="0.81"/><stop offset="0.18" stop-color="#fdb52b" stop-opacity="0.6"/><stop offset="0.28" stop-color="#fca227" stop-opacity="0.41"/><stop offset="0.38" stop-color="#fb9223" stop-opacity="0.26"/><stop offset="0.48" stop-color="#fb8620" stop-opacity="0.15"/><stop offset="0.58" stop-color="#fa7d1e" stop-opacity="0.07"/><stop offset="0.68" stop-color="#fa781c" stop-opacity="0.02"/><stop offset="0.77" stop-color="#fa761c" stop-opacity="0"/></radialGradient><radialGradient id="radial-gradient-5" cx="821.45" cy="-1708.72" r="8.48" xlink:href="#radial-gradient-2"/><radialGradient id="radial-gradient-6" cx="821.19" cy="-1724.38" r="6.66" xlink:href="#radial-gradient-2"/><radialGradient id="Degradado_sin_nombre_34-2" cx="10.94" cy="63.82" r="4.87" gradientTransform="matrix(0.9, -0.43, 1.26, 2.62, -79.51, -98.83)" xlink:href="#radial-gradient-2"/></defs><g class="cls-1"><g id="Camada_2" data-name="Camada 2"><g id="OBJECTS"><polygon class="cls-2" points="97.51 46.83 91.15 47.25 89.95 53.52 83.82 51.73 80.56 57.21 75.41 53.44 70.47 57.47 66.92 52.17 60.9 54.26 59.38 48.06 53.01 47.97 53.7 41.63 47.74 39.36 50.56 33.65 45.74 29.48 50.34 25.06 47.23 19.5 53.07 16.93 52.06 10.63 58.42 10.21 59.62 3.95 65.74 5.73 69.01 0.26 74.15 4.03 79.1 0 82.64 5.3 88.66 3.21 90.18 9.4 96.56 9.49 95.86 15.83 101.82 18.1 99 23.82 103.83 27.99 99.22 32.4 102.33 37.97 96.49 40.54 97.51 46.83"/><circle class="cls-3" cx="74.78" cy="28.73" r="21.51"/><path class="cls-4" d="M78.06,26.52c-5.48-4.45-7.62-11.21-4.78-15.12s9.59-3.47,15.07,1S96,23.59,93.13,27.49,83.54,31,78.06,26.52Z"/><path class="cls-5" d="M55.77,33.49c.72-2.38,4.41-1.4,8.24,2.2s6.34,8.44,5.62,10.82-4.41,1.39-8.24-2.2S55,35.87,55.77,33.49Z"/><path class="cls-6" d="M73,37.44a27,27,0,0,0-53.89,0,20.12,20.12,0,0,0,1,40.22H72a20.12,20.12,0,0,0,1-40.22Z"/><path class="cls-7" d="M73,37.44a27,27,0,0,0-53.89,0,20.12,20.12,0,0,0,1,40.22H72a20.12,20.12,0,0,0,1-40.22Z"/><path class="cls-8" d="M46.06,40C38.48,33.8,35.52,24.44,39.45,19s13.26-4.79,20.84,1.35,10.52,15.51,6.6,20.9S53.63,46.09,46.06,40Z"/><path class="cls-9" d="M73.14,58.11c-6-4.83-8.28-12.18-5.19-16.43s10.41-3.76,16.37,1.06,8.27,12.19,5.19,16.43S79.09,62.94,73.14,58.11Z"/><path class="cls-10" d="M14.39,58.79C10,51.93,4.89,48.63,3,51.41S3.09,62,7.48,68.86,17,79,18.89,76.23,18.78,65.64,14.39,58.79Z"/></g></g></g></svg>