<svg xmlns="http://www.w3.org/2000/svg" xmlns:xlink="http://www.w3.org/1999/xlink" viewBox="0 0 103.99 74.5"><defs><style>.cls-1{isolation:isolate;}.cls-2{fill:url(#radial-gradient);}.cls-3{fill:#acadb2;}.cls-4,.cls-5,.cls-7,.cls-8,.cls-9{mix-blend-mode:overlay;}.cls-4{fill:url(#radial-gradient-2);}.cls-5,.cls-8{opacity:0.4;}.cls-5{fill:url(#Degradado_sin_nombre_34);}.cls-6{fill:url(#radial-gradient-3);}.cls-7{fill:url(#radial-gradient-4);}.cls-8{fill:url(#radial-gradient-5);}.cls-9{opacity:0.2;fill:url(#Degradado_sin_nombre_34-2);}</style><radialGradient id="radial-gradient" cx="-680.66" cy="10.07" r="51.26" gradientTransform="matrix(-1, 0, 0, 1, -597.5, 0)" gradientUnits="userSpaceOnUse"><stop offset="0" stop-color="#f8f8f8"/><stop offset="0.16" stop-color="#ede9f1"/><stop offset="1" stop-color="#9b9da2"/></radialGradient><radialGradient id="radial-gradient-2" cx="725.68" cy="-2052.34" r="7.69" gradientTransform="matrix(-0.84, 1.15, -1.62, -1.31, -2625.37, -3515.69)" gradientUnits="userSpaceOnUse"><stop offset="0" stop-color="#fff"/><stop offset="0.1" stop-color="#fff" stop-opacity="0.85"/><stop offset="0.29" stop-color="#fff" stop-opacity="0.59"/><stop offset="0.47" stop-color="#fff" stop-opacity="0.38"/><stop offset="0.63" stop-color="#fff" stop-opacity="0.22"/><stop offset="0.78" stop-color="#fff" stop-opacity="0.1"/><stop offset="0.91" stop-color="#fff" stop-opacity="0.03"/><stop offset="1" stop-color="#fff" stop-opacity="0"/></radialGradient><radialGradient id="Degradado_sin_nombre_34" cx="-3445.04" cy="3117.6" r="7.43" gradientTransform="matrix(-1.17, -1.1, 0.22, -0.73, -4666.84, -1480.27)" xlink:href="#radial-gradient-2"/><radialGradient id="radial-gradient-3" cx="57.67" cy="22.91" r="70.26" gradientTransform="translate(115.34 39.64) rotate(180) scale(1 0.73)" gradientUnits="userSpaceOnUse"><stop offset="0" stop-color="#fff"/><stop offset="0.2" stop-color="#d5f3ff"/><stop offset="1" stop-color="#85bcf1"/></radialGradient><radialGradient id="radial-gradient-4" cx="747.24" cy="-2042.27" r="8.48" xlink:href="#radial-gradient-2"/><radialGradient id="radial-gradient-5" cx="746.98" cy="-2057.93" r="6.66" xlink:href="#radial-gradient-2"/><radialGradient id="Degradado_sin_nombre_34-2" cx="10.93" cy="60.66" r="4.87" gradientTransform="matrix(0.9, -0.43, 1.26, 2.62, -75.51, -93.7)" xlink:href="#radial-gradient-2"/></defs><g class="cls-1"><g id="Camada_2" data-name="Camada 2"><g id="OBJECTS"><path class="cls-2" d="M50,27A27,27,0,1,0,77,0,27,27,0,0,0,50,27Z"/><path class="cls-3" d="M58.12,31.78c2.53-.23,4.35-3.11,4.05-6.43s-2.6-5.83-5.14-5.6S52.68,22.86,53,26.18,55.58,32,58.12,31.78Z"/><path class="cls-3" d="M55.92,34.19c-1.52.8-1.91,3.06-.86,5.05s3.12,3,4.64,2.16,1.91-3.06.86-5S57.44,33.4,55.92,34.19Z"/><path class="cls-3" d="M61.94,31.8a2.17,2.17,0,0,0-.51,3,1.9,1.9,0,1,0,3.25-1.71A2.16,2.16,0,0,0,61.94,31.8Z"/><path class="cls-3" d="M101.92,28c-.46-3.3-2.88-5.69-5.41-5.34S92.32,26,92.79,29.27,95.68,35,98.2,34.6,102.39,31.28,101.92,28Z"/><path class="cls-3" d="M98.59,20.12c1.47-.88,1.74-3.15.6-5.09s-3.27-2.79-4.75-1.92-1.74,3.15-.6,5.09S97.11,21,98.59,20.12Z"/><path class="cls-3" d="M93.05,19.81a2.18,2.18,0,0,0-2.81-1.13,2.17,2.17,0,0,0-.35,3,2.18,2.18,0,0,0,2.8,1.14A2.17,2.17,0,0,0,93.05,19.81Z"/><path class="cls-4" d="M81.1,24.22c-6.88-5.58-9.56-14.07-6-19S87.13.9,94,6.47s9.55,14.08,6,19S88,29.8,81.1,24.22Z"/><path class="cls-5" d="M53.12,33c.91-3,5.54-1.75,10.35,2.76s8,10.6,7,13.58S65,51.06,60.17,46.55,52.21,36,53.12,33Z"/><path class="cls-6" d="M73,34.28a27,27,0,0,0-53.88,0,20.12,20.12,0,0,0,1,40.22H72a20.12,20.12,0,0,0,1-40.22Z"/><path class="cls-7" d="M46.06,36.78c-7.58-6.15-10.54-15.5-6.61-20.9s13.26-4.8,20.84,1.34,10.52,15.51,6.6,20.91S53.63,42.92,46.06,36.78Z"/><path class="cls-8" d="M73.14,54.94c-6-4.83-8.28-12.18-5.19-16.42s10.41-3.77,16.37,1S92.59,51.76,89.51,56,79.09,59.77,73.14,54.94Z"/><path class="cls-9" d="M14.39,55.62C10,48.77,4.89,45.47,3,48.25s.11,10.58,4.5,17.44S17,75.84,18.89,73.06,18.78,62.47,14.39,55.62Z"/></g></g></g></svg>