<svg xmlns="http://www.w3.org/2000/svg" xmlns:xlink="http://www.w3.org/1999/xlink" viewBox="0 0 92.11 65.37"><defs><style>.cls-1{isolation:isolate;}.cls-2{fill:url(#radial-gradient);}.cls-3,.cls-4,.cls-5{mix-blend-mode:overlay;}.cls-3{fill:url(#radial-gradient-2);}.cls-4{opacity:0.4;fill:url(#radial-gradient-3);}.cls-5{opacity:0.2;fill:url(#Degradado_sin_nombre_34);}</style><radialGradient id="radial-gradient" cx="57.67" cy="13.78" r="70.26" gradientTransform="translate(115.34 23.84) rotate(180) scale(1 0.73)" gradientUnits="userSpaceOnUse"><stop offset="0" stop-color="#fff"/><stop offset="0.2" stop-color="#d5f3ff"/><stop offset="1" stop-color="#85bcf1"/></radialGradient><radialGradient id="radial-gradient-2" cx="1198.4" cy="-1619.45" r="8.48" gradientTransform="matrix(-0.84, 1.15, -1.62, -1.31, -1562.37, -3490.29)" gradientUnits="userSpaceOnUse"><stop offset="0" stop-color="#fff"/><stop offset="0.1" stop-color="#fff" stop-opacity="0.85"/><stop offset="0.29" stop-color="#fff" stop-opacity="0.59"/><stop offset="0.47" stop-color="#fff" stop-opacity="0.38"/><stop offset="0.63" stop-color="#fff" stop-opacity="0.22"/><stop offset="0.78" stop-color="#fff" stop-opacity="0.1"/><stop offset="0.91" stop-color="#fff" stop-opacity="0.03"/><stop offset="1" stop-color="#fff" stop-opacity="0"/></radialGradient><radialGradient id="radial-gradient-3" cx="1198.15" cy="-1635.1" r="6.66" xlink:href="#radial-gradient-2"/><radialGradient id="Degradado_sin_nombre_34" cx="10.93" cy="51.53" r="4.87" gradientTransform="matrix(0.9, -0.43, 1.26, 2.62, -63.98, -78.88)" xlink:href="#radial-gradient-2"/></defs><g class="cls-1"><g id="Camada_2" data-name="Camada 2"><g id="OBJECTS"><path class="cls-2" d="M73,25.15a27,27,0,0,0-53.89,0,20.12,20.12,0,0,0,1,40.22H72a20.12,20.12,0,0,0,1-40.22Z"/><path class="cls-3" d="M46.06,27.65c-7.58-6.15-10.54-15.5-6.61-20.9S52.71,2,60.28,8.09,70.81,23.6,66.89,29,53.63,33.79,46.06,27.65Z"/><path class="cls-4" d="M73.14,45.82c-6-4.84-8.28-12.19-5.2-16.43s10.42-3.77,16.38,1.06,8.27,12.18,5.19,16.42S79.09,50.64,73.14,45.82Z"/><path class="cls-5" d="M14.39,46.49C10,39.64,4.89,36.34,3,39.12s.11,10.59,4.5,17.44S17,66.72,18.89,63.94,18.78,53.35,14.39,46.49Z"/></g></g></g></svg>