<svg xmlns="http://www.w3.org/2000/svg" xmlns:xlink="http://www.w3.org/1999/xlink" viewBox="0 0 120.47 79.21"><defs><style>.cls-1{isolation:isolate;}.cls-2{fill:url(#radial-gradient);}.cls-3{opacity:0.6;fill:url(#radial-gradient-2);}.cls-3,.cls-4,.cls-5,.cls-7,.cls-8,.cls-9{mix-blend-mode:overlay;}.cls-4,.cls-8{opacity:0.4;}.cls-4{fill:url(#radial-gradient-3);}.cls-5,.cls-9{opacity:0.2;}.cls-5{fill:url(#Degradado_sin_nombre_34);}.cls-6{fill:url(#radial-gradient-4);}.cls-7{fill:url(#radial-gradient-5);}.cls-8{fill:url(#radial-gradient-6);}.cls-9{fill:url(#Degradado_sin_nombre_34-2);}</style><radialGradient id="radial-gradient" cx="86.03" cy="13.78" r="70.26" gradientTransform="translate(172.06 23.84) rotate(180) scale(1 0.73)" gradientUnits="userSpaceOnUse"><stop offset="0" stop-color="#b6ccd2"/><stop offset="0.2" stop-color="#97b6be"/><stop offset="1" stop-color="#5d87b4"/></radialGradient><radialGradient id="radial-gradient-2" cx="1005.23" cy="-1659.86" r="8.48" gradientTransform="matrix(-0.84, 1.15, -1.62, -1.31, -1759.64, -3320.5)" gradientUnits="userSpaceOnUse"><stop offset="0" stop-color="#fff"/><stop offset="0.1" stop-color="#fff" stop-opacity="0.85"/><stop offset="0.29" stop-color="#fff" stop-opacity="0.59"/><stop offset="0.47" stop-color="#fff" stop-opacity="0.38"/><stop offset="0.63" stop-color="#fff" stop-opacity="0.22"/><stop offset="0.78" stop-color="#fff" stop-opacity="0.1"/><stop offset="0.91" stop-color="#fff" stop-opacity="0.03"/><stop offset="1" stop-color="#fff" stop-opacity="0"/></radialGradient><radialGradient id="radial-gradient-3" cx="1005.81" cy="-1674.78" r="6.66" xlink:href="#radial-gradient-2"/><radialGradient id="Degradado_sin_nombre_34" cx="39.3" cy="51.53" r="4.87" gradientTransform="matrix(0.9, -0.43, 1.26, 2.62, -61.18, -66.58)" xlink:href="#radial-gradient-2"/><radialGradient id="radial-gradient-4" cx="57.67" cy="27.62" r="70.26" gradientTransform="translate(115.34 47.79) rotate(180) scale(1 0.73)" gradientUnits="userSpaceOnUse"><stop offset="0" stop-color="#fff"/><stop offset="0.2" stop-color="#d5f3ff"/><stop offset="1" stop-color="#85bcf1"/></radialGradient><radialGradient id="radial-gradient-5" cx="1026.15" cy="-1652.02" r="8.48" xlink:href="#radial-gradient-2"/><radialGradient id="radial-gradient-6" cx="1025.9" cy="-1667.68" r="6.66" xlink:href="#radial-gradient-2"/><radialGradient id="Degradado_sin_nombre_34-2" cx="10.94" cy="65.37" r="4.87" gradientTransform="matrix(0.9, -0.43, 1.26, 2.62, -81.46, -101.34)" xlink:href="#radial-gradient-2"/></defs><g class="cls-1"><g id="Camada_2" data-name="Camada 2"><g id="OBJECTS"><path class="cls-2" d="M101.36,25.15a27,27,0,0,0-53.88,0,20.12,20.12,0,0,0,1,40.22h51.86a20.12,20.12,0,0,0,1-40.22Z"/><path class="cls-3" d="M76.31,27.65c-7.58-6.15-10.53-15.5-6.61-20.9S83,2,90.54,8.09,101.07,23.6,97.14,29,83.88,33.79,76.31,27.65Z"/><path class="cls-4" d="M101.5,45.81c-6-4.83-8.28-12.18-5.19-16.42s10.42-3.77,16.37,1.06,8.28,12.18,5.19,16.42S107.45,50.64,101.5,45.81Z"/><path class="cls-5" d="M42.75,46.49c-4.39-6.85-9.5-10.15-11.41-7.37s.11,10.59,4.5,17.44,9.5,10.15,11.41,7.37S47.14,53.35,42.75,46.49Z"/><path class="cls-6" d="M73,39a27,27,0,0,0-53.89,0,20.12,20.12,0,0,0,1,40.22H72A20.12,20.12,0,0,0,73,39Z"/><path class="cls-7" d="M46.06,41.49c-7.58-6.14-10.54-15.5-6.61-20.9s13.26-4.8,20.84,1.35,10.52,15.5,6.6,20.9S53.63,47.63,46.06,41.49Z"/><path class="cls-8" d="M73.14,59.66c-6-4.83-8.28-12.19-5.19-16.43s10.41-3.77,16.37,1.06,8.27,12.18,5.19,16.42S79.09,64.48,73.14,59.66Z"/><path class="cls-9" d="M14.39,60.33C10,53.48,4.89,50.18,3,53s.11,10.59,4.5,17.44S17,80.56,18.89,77.78,18.78,67.19,14.39,60.33Z"/></g></g></g></svg>