<svg xmlns="http://www.w3.org/2000/svg" xmlns:xlink="http://www.w3.org/1999/xlink" viewBox="0 0 106.83 94"><defs><style>.cls-1{isolation:isolate;}.cls-2{fill:url(#linear-gradient);}.cls-3{fill:url(#radial-gradient);}.cls-10,.cls-12,.cls-14,.cls-16,.cls-18,.cls-4,.cls-5,.cls-8,.cls-9{mix-blend-mode:overlay;}.cls-4{fill:url(#radial-gradient-2);}.cls-5,.cls-9{opacity:0.4;}.cls-5{fill:url(#Degradado_sin_nombre_34);}.cls-6{fill:url(#radial-gradient-3);}.cls-7{fill:url(#radial-gradient-4);}.cls-8{fill:url(#radial-gradient-5);}.cls-9{fill:url(#radial-gradient-6);}.cls-10{opacity:0.2;fill:url(#Degradado_sin_nombre_34-2);}.cls-11{fill:url(#radial-gradient-7);}.cls-12{fill:url(#radial-gradient-8);}.cls-13{fill:url(#radial-gradient-9);}.cls-14{fill:url(#radial-gradient-10);}.cls-15{fill:url(#radial-gradient-11);}.cls-16{fill:url(#radial-gradient-12);}.cls-17{fill:url(#radial-gradient-13);}.cls-18{fill:url(#radial-gradient-14);}</style><linearGradient id="linear-gradient" x1="103.97" y1="-0.96" x2="46.97" y2="62.73" gradientUnits="userSpaceOnUse"><stop offset="0" stop-color="#ffba24"/><stop offset="1" stop-color="#f50"/></linearGradient><radialGradient id="radial-gradient" cx="379.71" cy="17.02" r="45.6" gradientTransform="matrix(-1, 0, 0, 1, 459.6, 0)" gradientUnits="userSpaceOnUse"><stop offset="0" stop-color="#fff4c3"/><stop offset="0.16" stop-color="#ffe036"/><stop offset="1" stop-color="#fa761c"/></radialGradient><radialGradient id="radial-gradient-2" cx="1490.28" cy="-1840.78" r="6.84" gradientTransform="matrix(-0.84, 1.15, -1.62, -1.31, -1645.03, -4113.68)" gradientUnits="userSpaceOnUse"><stop offset="0" stop-color="#fff"/><stop offset="0.1" stop-color="#fff" stop-opacity="0.85"/><stop offset="0.29" stop-color="#fff" stop-opacity="0.59"/><stop offset="0.47" stop-color="#fff" stop-opacity="0.38"/><stop offset="0.63" stop-color="#fff" stop-opacity="0.22"/><stop offset="0.78" stop-color="#fff" stop-opacity="0.1"/><stop offset="0.91" stop-color="#fff" stop-opacity="0.03"/><stop offset="1" stop-color="#fff" stop-opacity="0"/></radialGradient><radialGradient id="Degradado_sin_nombre_34" cx="-2564.89" cy="2593.44" r="6.6" gradientTransform="matrix(-1.17, -1.1, 0.22, -0.73, -3520.11, -889.71)" xlink:href="#radial-gradient-2"/><radialGradient id="radial-gradient-3" cx="57.67" cy="27.99" r="70.26" gradientTransform="translate(115.34 48.43) rotate(180) scale(1 0.73)" gradientUnits="userSpaceOnUse"><stop offset="0" stop-color="#fff"/><stop offset="0.2" stop-color="#d5f3ff"/><stop offset="1" stop-color="#85bcf1"/></radialGradient><radialGradient id="radial-gradient-4" cx="66.72" cy="31.98" r="61.7" gradientUnits="userSpaceOnUse"><stop offset="0" stop-color="#ffe036"/><stop offset="0.08" stop-color="#fecb31" stop-opacity="0.81"/><stop offset="0.18" stop-color="#fdb52b" stop-opacity="0.6"/><stop offset="0.28" stop-color="#fca227" stop-opacity="0.41"/><stop offset="0.38" stop-color="#fb9223" stop-opacity="0.26"/><stop offset="0.48" stop-color="#fb8620" stop-opacity="0.15"/><stop offset="0.58" stop-color="#fa7d1e" stop-opacity="0.07"/><stop offset="0.68" stop-color="#fa781c" stop-opacity="0.02"/><stop offset="0.77" stop-color="#fa761c" stop-opacity="0"/></radialGradient><radialGradient id="radial-gradient-5" cx="1509.48" cy="-1831.8" r="8.48" xlink:href="#radial-gradient-2"/><radialGradient id="radial-gradient-6" cx="1509.22" cy="-1847.46" r="6.66" xlink:href="#radial-gradient-2"/><radialGradient id="Degradado_sin_nombre_34-2" cx="10.93" cy="65.74" r="4.87" gradientTransform="matrix(0.9, -0.43, 1.26, 2.62, -81.93, -101.94)" xlink:href="#radial-gradient-2"/><radialGradient id="radial-gradient-7" cx="-190.53" cy="137.37" r="9.89" gradientTransform="translate(251.76 67.31) rotate(30)" gradientUnits="userSpaceOnUse"><stop offset="0" stop-color="#d0f2ff"/><stop offset="0.2" stop-color="#d5f3ff"/><stop offset="1" stop-color="#85bcf1"/></radialGradient><radialGradient id="radial-gradient-8" cx="1674.25" cy="-1766.62" r="1.55" gradientTransform="matrix(-1.3, 0.58, -0.75, -1.95, 884.32, -4317.55)" xlink:href="#radial-gradient-2"/><radialGradient id="radial-gradient-9" cx="-175.64" cy="128.77" r="9.89" xlink:href="#radial-gradient-7"/><radialGradient id="radial-gradient-10" cx="1662.98" cy="-1769.98" r="1.55" gradientTransform="matrix(-1.3, 0.58, -0.75, -1.95, 884.32, -4317.55)" xlink:href="#radial-gradient-2"/><radialGradient id="radial-gradient-11" cx="-160.75" cy="120.17" r="9.89" xlink:href="#radial-gradient-7"/><radialGradient id="radial-gradient-12" cx="1651.71" cy="-1773.33" r="1.55" gradientTransform="matrix(-1.3, 0.58, -0.75, -1.95, 884.32, -4317.55)" xlink:href="#radial-gradient-2"/><radialGradient id="radial-gradient-13" cx="-145.86" cy="111.58" r="9.89" xlink:href="#radial-gradient-7"/><radialGradient id="radial-gradient-14" cx="1640.44" cy="-1776.69" r="1.55" gradientTransform="matrix(-1.3, 0.58, -0.75, -1.95, 884.32, -4317.55)" xlink:href="#radial-gradient-2"/></defs><g class="cls-1"><g id="Camada_2" data-name="Camada 2"><g id="OBJECTS"><polygon class="cls-2" points="99.77 52.29 92.67 52.76 91.33 59.75 84.5 57.76 80.85 63.88 75.1 59.67 69.58 64.16 65.63 58.24 58.9 60.58 57.21 53.67 50.09 53.56 50.86 46.48 44.21 43.95 47.36 37.56 41.97 32.91 47.11 27.98 43.64 21.77 50.16 18.9 49.02 11.87 56.13 11.4 57.47 4.41 64.3 6.4 67.95 0.29 73.69 4.5 79.22 0 83.17 5.92 89.9 3.58 91.59 10.5 98.71 10.6 97.94 17.68 104.59 20.21 101.44 26.6 106.83 31.25 101.69 36.18 105.16 42.4 98.64 45.26 99.77 52.29"/><path class="cls-3" d="M50.38,32.08a24,24,0,1,0,24-24A24,24,0,0,0,50.38,32.08Z"/><path class="cls-4" d="M78.06,29.61c-6.12-5-8.51-12.52-5.34-16.88s10.71-3.87,16.83,1.09,8.5,12.52,5.33,16.88S84.18,34.57,78.06,29.61Z"/><path class="cls-5" d="M53.17,37.39c.81-2.66,4.93-1.56,9.2,2.46s7.09,9.42,6.28,12.08-4.93,1.56-9.21-2.46S52.36,40,53.17,37.39Z"/><path class="cls-6" d="M73,39.36a27,27,0,0,0-53.89,0,20.12,20.12,0,0,0,1,40.22H72a20.12,20.12,0,0,0,1-40.22Z"/><path class="cls-7" d="M73,39.36a27,27,0,0,0-53.89,0,20.12,20.12,0,0,0,1,40.22H72a20.12,20.12,0,0,0,1-40.22Z"/><path class="cls-8" d="M46.06,41.86C38.48,35.71,35.52,26.36,39.45,21s13.26-4.79,20.83,1.35,10.53,15.51,6.61,20.91S53.63,48,46.06,41.86Z"/><path class="cls-9" d="M73.14,60c-6-4.83-8.28-12.18-5.2-16.42s10.42-3.77,16.38,1,8.27,12.19,5.19,16.43S79.09,64.85,73.14,60Z"/><path class="cls-10" d="M14.39,60.7C10,53.85,4.89,50.55,3,53.33s.11,10.58,4.5,17.44S17,80.92,18.89,78.14,18.78,67.55,14.39,60.7Z"/><path class="cls-11" d="M23.58,91.94a4.11,4.11,0,1,1-7.12-4.11c1.14-2,8.16-5.9,8.16-5.9S24.72,90,23.58,91.94Z"/><path class="cls-12" d="M16.58,91.26c-.64-1.66-.25-3.41.87-3.91s2.53.45,3.17,2.12.25,3.41-.86,3.91S17.22,92.93,16.58,91.26Z"/><path class="cls-13" d="M40.78,91.94a4.11,4.11,0,0,1-7.13-4.11c1.14-2,8.16-5.9,8.16-5.9S41.91,90,40.78,91.94Z"/><path class="cls-14" d="M33.77,91.26c-.63-1.66-.25-3.41.87-3.91s2.54.45,3.17,2.12.25,3.41-.86,3.91S34.41,92.93,33.77,91.26Z"/><path class="cls-15" d="M58,91.94a4.11,4.11,0,1,1-7.12-4.11c1.13-2,8.15-5.9,8.15-5.9S59.1,90,58,91.94Z"/><path class="cls-16" d="M51,91.26c-.64-1.66-.25-3.41.86-3.91s2.54.45,3.18,2.12.25,3.41-.87,3.91S51.6,92.93,51,91.26Z"/><path class="cls-17" d="M75.16,91.94A4.11,4.11,0,1,1,68,87.83c1.14-2,8.16-5.9,8.16-5.9S76.3,90,75.16,91.94Z"/><path class="cls-18" d="M68.16,91.26c-.64-1.66-.25-3.41.87-3.91s2.53.45,3.17,2.12.25,3.41-.87,3.91S68.8,92.93,68.16,91.26Z"/></g></g></g></svg>