<svg xmlns="http://www.w3.org/2000/svg" xmlns:xlink="http://www.w3.org/1999/xlink" viewBox="0 0 94.95 93.24"><defs><style>.cls-1{isolation:isolate;}.cls-2{fill:url(#linear-gradient);}.cls-3{fill:url(#radial-gradient);}.cls-10,.cls-13,.cls-14,.cls-16,.cls-17,.cls-18,.cls-4,.cls-6,.cls-8{mix-blend-mode:overlay;}.cls-4{fill:url(#radial-gradient-2);}.cls-5{fill:url(#radial-gradient-3);}.cls-6{fill:url(#radial-gradient-4);}.cls-7{fill:url(#radial-gradient-5);}.cls-8{fill:url(#radial-gradient-6);}.cls-9{fill:url(#radial-gradient-7);}.cls-10{fill:url(#radial-gradient-8);}.cls-11{fill:url(#radial-gradient-9);}.cls-12{fill:#acadb2;}.cls-13{fill:url(#radial-gradient-10);}.cls-14,.cls-17{opacity:0.4;}.cls-14{fill:url(#Degradado_sin_nombre_34);}.cls-15{fill:url(#radial-gradient-11);}.cls-16{opacity:0.6;fill:url(#radial-gradient-12);}.cls-17{fill:url(#radial-gradient-13);}.cls-18{opacity:0.2;fill:url(#Degradado_sin_nombre_34-2);}</style><linearGradient id="linear-gradient" x1="38.18" y1="92.54" x2="48.7" y2="59.4" gradientUnits="userSpaceOnUse"><stop offset="0.16" stop-color="#ffe036"/><stop offset="1" stop-color="#fa761c"/></linearGradient><radialGradient id="radial-gradient" cx="-206.31" cy="-156.71" r="9.03" gradientTransform="translate(118.61 317.31) rotate(30)" gradientUnits="userSpaceOnUse"><stop offset="0" stop-color="#d0f2ff"/><stop offset="0.2" stop-color="#d5f3ff"/><stop offset="1" stop-color="#85bcf1"/></radialGradient><radialGradient id="radial-gradient-2" cx="819.49" cy="-2042.85" r="1.41" gradientTransform="matrix(-1.3, 0.58, -0.75, -1.95, -435.67, -4372.34)" gradientUnits="userSpaceOnUse"><stop offset="0" stop-color="#fff"/><stop offset="0.1" stop-color="#fff" stop-opacity="0.85"/><stop offset="0.29" stop-color="#fff" stop-opacity="0.59"/><stop offset="0.47" stop-color="#fff" stop-opacity="0.38"/><stop offset="0.63" stop-color="#fff" stop-opacity="0.22"/><stop offset="0.78" stop-color="#fff" stop-opacity="0.1"/><stop offset="0.91" stop-color="#fff" stop-opacity="0.03"/><stop offset="1" stop-color="#fff" stop-opacity="0"/></radialGradient><radialGradient id="radial-gradient-3" cx="-195.57" cy="-150.21" r="9.03" xlink:href="#radial-gradient"/><radialGradient id="radial-gradient-4" cx="818.28" cy="-2048.86" r="1.41" xlink:href="#radial-gradient-2"/><radialGradient id="radial-gradient-5" cx="-164.38" cy="-180.92" r="9.03" xlink:href="#radial-gradient"/><radialGradient id="radial-gradient-6" cx="787.75" cy="-2052.3" r="1.41" xlink:href="#radial-gradient-2"/><radialGradient id="radial-gradient-7" cx="-167.91" cy="-166.18" r="9.03" xlink:href="#radial-gradient"/><radialGradient id="radial-gradient-8" cx="797.35" cy="-2055.09" r="1.41" xlink:href="#radial-gradient-2"/><radialGradient id="radial-gradient-9" cx="-682.47" cy="9.2" r="46.81" gradientTransform="matrix(-1, 0, 0, 1, -606.53, 0)" gradientUnits="userSpaceOnUse"><stop offset="0" stop-color="#f8f8f8"/><stop offset="0.16" stop-color="#ede9f1"/><stop offset="1" stop-color="#9b9da2"/></radialGradient><radialGradient id="radial-gradient-10" cx="786.33" cy="-2202.57" r="7.03" gradientTransform="matrix(-0.84, 1.15, -1.62, -1.31, -2825.25, -3784.2)" xlink:href="#radial-gradient-2"/><radialGradient id="Degradado_sin_nombre_34" cx="-3472.2" cy="2875.86" r="6.78" gradientTransform="matrix(-1.17, -1.1, 0.22, -0.73, -4650.37, -1689.8)" xlink:href="#radial-gradient-2"/><radialGradient id="radial-gradient-11" cx="52.66" cy="20.92" r="64.15" gradientTransform="translate(105.32 36.2) rotate(180) scale(1 0.73)" gradientUnits="userSpaceOnUse"><stop offset="0" stop-color="#b6ccd2"/><stop offset="0.2" stop-color="#97b6be"/><stop offset="1" stop-color="#5d87b4"/></radialGradient><radialGradient id="radial-gradient-12" cx="806.02" cy="-2193.38" r="7.74" gradientTransform="matrix(-0.84, 1.15, -1.62, -1.31, -2825.25, -3784.2)" xlink:href="#radial-gradient-2"/><radialGradient id="radial-gradient-13" cx="805.78" cy="-2207.68" r="6.08" gradientTransform="matrix(-0.84, 1.15, -1.62, -1.31, -2825.25, -3784.2)" xlink:href="#radial-gradient-2"/><radialGradient id="Degradado_sin_nombre_34-2" cx="9.98" cy="55.39" r="4.45" gradientTransform="matrix(0.9, -0.43, 1.26, 2.62, -68.95, -85.56)" xlink:href="#radial-gradient-2"/></defs><g class="cls-1"><g id="Camada_2" data-name="Camada 2"><g id="OBJECTS"><path class="cls-2" d="M50.32,72.08h-4L52.9,59.31a7.71,7.71,0,0,0,.65-1.82,7.33,7.33,0,1,0-14.34-3.05L34.82,75.05l-.14.63a4.6,4.6,0,0,0-.09.91A4.44,4.44,0,0,0,39,81H43.9L41.27,92a1,1,0,0,0,1.84.84L53.55,78.43a4,4,0,0,0-3.23-6.35Z"/><path class="cls-3" d="M23.33,79.3a3.75,3.75,0,1,1-6.5-3.76c1-1.79,7.45-5.39,7.45-5.39S24.37,77.5,23.33,79.3Z"/><path class="cls-4" d="M16.94,78.67c-.58-1.52-.23-3.12.79-3.57s2.31.41,2.9,1.93.23,3.12-.79,3.58S17.52,80.19,16.94,78.67Z"/><path class="cls-5" d="M29.38,90.3a3.75,3.75,0,0,1-6.5-3.76c1-1.79,7.45-5.39,7.45-5.39S30.42,88.5,29.38,90.3Z"/><path class="cls-6" d="M23,89.67c-.58-1.52-.23-3.12.79-3.57s2.32.41,2.9,1.93.23,3.12-.79,3.57S23.57,91.19,23,89.67Z"/><path class="cls-7" d="M71.75,79.3a3.75,3.75,0,0,1-6.5-3.76c1-1.79,7.45-5.39,7.45-5.39S72.79,77.5,71.75,79.3Z"/><path class="cls-8" d="M65.36,78.67c-.59-1.52-.23-3.12.79-3.57S68.46,75.51,69,77s.23,3.12-.79,3.58S65.94,80.19,65.36,78.67Z"/><path class="cls-9" d="M61.32,90.3a3.75,3.75,0,0,1-6.5-3.76c1-1.79,7.45-5.39,7.45-5.39S62.36,88.5,61.32,90.3Z"/><path class="cls-10" d="M54.93,89.67c-.58-1.52-.23-3.12.79-3.57s2.32.41,2.9,1.93.23,3.12-.79,3.57S55.51,91.19,54.93,89.67Z"/><path class="cls-11" d="M45.64,24.66A24.66,24.66,0,1,0,70.3,0,24.66,24.66,0,0,0,45.64,24.66Z"/><path class="cls-12" d="M53.07,29c2.32-.21,4-2.84,3.7-5.87S54.4,17.82,52.08,18s-4,2.84-3.7,5.87S50.75,29.23,53.07,29Z"/><path class="cls-12" d="M51.06,31.22c-1.39.73-1.74,2.8-.78,4.61s2.85,2.7,4.24,2,1.73-2.79.78-4.6S52.45,30.5,51.06,31.22Z"/><path class="cls-12" d="M56.56,29a2,2,0,0,0-.46,2.73,1.73,1.73,0,1,0,3-1.56A2,2,0,0,0,56.56,29Z"/><path class="cls-12" d="M93.07,25.55c-.43-3-2.64-5.2-4.94-4.87s-3.83,3-3.4,6.05,2.64,5.19,4.94,4.87S93.5,28.56,93.07,25.55Z"/><path class="cls-12" d="M90,18.37c1.35-.8,1.6-2.88.55-4.64s-3-2.55-4.33-1.76-1.59,2.88-.55,4.65S88.67,19.17,90,18.37Z"/><path class="cls-12" d="M85,18.09a2,2,0,0,0-2.56-1,2,2,0,0,0-.33,2.74,2,2,0,0,0,2.56,1A2,2,0,0,0,85,18.09Z"/><path class="cls-13" d="M74.05,22.12C67.78,17,65.32,9.27,68.58,4.79s11-4,17.27,1.12,8.73,12.85,5.47,17.33S80.33,27.21,74.05,22.12Z"/><path class="cls-14" d="M48.5,30.11c.84-2.73,5.06-1.6,9.45,2.52S65.22,42.3,64.39,45s-5,1.6-9.44-2.52S47.68,32.83,48.5,30.11Z"/><path class="cls-15" d="M66.66,31.3a24.66,24.66,0,0,0-49.21,0A18.38,18.38,0,0,0,18.37,68H65.73a18.38,18.38,0,0,0,.93-36.73Z"/><path class="cls-16" d="M42.06,33.59C35.14,28,32.44,19.43,36,14.5s12.11-4.38,19,1.23,9.61,14.16,6,19.09S49,39.19,42.06,33.59Z"/><path class="cls-17" d="M66.79,50.17c-5.44-4.41-7.56-11.12-4.75-15s9.52-3.44,14.95,1,7.56,11.13,4.74,15S72.22,54.58,66.79,50.17Z"/><path class="cls-18" d="M13.14,50.79c-4-6.26-8.67-9.27-10.42-6.73S2.82,53.72,6.83,60s8.68,9.28,10.42,6.74S17.15,57.05,13.14,50.79Z"/></g></g></g></svg>