<svg xmlns="http://www.w3.org/2000/svg" xmlns:xlink="http://www.w3.org/1999/xlink" viewBox="0 0 64.55 73.47"><defs><style>.cls-1{fill:url(#radial-gradient);}</style><radialGradient id="radial-gradient" cx="53.35" cy="22.08" r="62.65" gradientUnits="userSpaceOnUse"><stop offset="0" stop-color="#28cbe9"/><stop offset="1" stop-color="#0a4fbb"/></radialGradient></defs><g id="Camada_2" data-name="Camada 2"><g id="OBJECTS"><path class="cls-1" d="M62.83,50.39l-6.72-3.88,2.07-1.2a3.45,3.45,0,1,0-3.44-6l-5.53,3.19-5.11-3a11.78,11.78,0,0,0,0-5.7l5.11-2.94,5.53,3.19a3.45,3.45,0,1,0,3.44-6L56.1,27l6.73-3.88a3.45,3.45,0,0,0-3.45-6L52.66,21v-2.4a3.46,3.46,0,0,0-3.45-3.45h0a3.46,3.46,0,0,0-3.45,3.45V25l-5.11,2.95a12.07,12.07,0,0,0-4.93-2.85V19.17L41.25,16a3.45,3.45,0,0,0-3.45-6l-2.08,1.21V3.45a3.45,3.45,0,1,0-6.89,0v7.76L26.75,10a3.45,3.45,0,1,0-3.45,6l5.53,3.19v5.89a12.14,12.14,0,0,0-4.93,2.85L18.79,25V18.58a3.45,3.45,0,0,0-6.9,0V21L5.17,17.1a3.45,3.45,0,0,0-3.44,6L8.44,27,6.36,28.15a3.45,3.45,0,0,0,3.45,6l5.53-3.19,5.11,2.94a11.78,11.78,0,0,0,0,5.7l-5.11,3-5.53-3.2a3.45,3.45,0,0,0-3.45,6l2.09,1.2L1.73,50.39a3.44,3.44,0,0,0,1.72,6.43,3.34,3.34,0,0,0,1.72-.46l6.72-3.88v2.4a3.45,3.45,0,1,0,6.9,0V48.5l5.11-3a12.17,12.17,0,0,0,4.92,2.85v5.9L23.3,57.49a3.45,3.45,0,1,0,3.45,6l2.08-1.2V70a3.45,3.45,0,1,0,6.89,0V62.26l2.08,1.2a3.39,3.39,0,0,0,1.72.46,3.45,3.45,0,0,0,1.73-6.43L35.72,54.3V48.4a12.14,12.14,0,0,0,4.93-2.85l5.11,3v6.38a3.45,3.45,0,1,0,6.9,0v-2.4l6.72,3.88a3.34,3.34,0,0,0,1.72.46,3.45,3.45,0,0,0,1.73-6.43ZM32.28,42a5.28,5.28,0,1,1,5.28-5.28A5.28,5.28,0,0,1,32.28,42Z"/></g></g></svg>